<?xml version="1.0" encoding="UTF-8"?> <svg version="1.1" viewBox="0 0 119 65" xmlns="http://www.w3.org/2000/svg"> <title>1A49B4E2-0C0C-4D10-970B-E795C196A074</title> <desc>Created with sketchtool.</desc> <g fill="none" fill-rule="evenodd"> <g transform="translate(-661 -151)"> <g transform="translate(653 151)"> <path transform="translate(90.234 37.62) scale(1 -1) translate(-90.234 -37.62)" d="m100.04 16.528 24.616 41.496c3.2123 5.4149 1.4266 12.409-3.9883 15.621-1.7604 1.0443-3.7695 1.5954-5.8163 1.5954h-49.232c-6.296 0-11.4-5.104-11.4-11.4 0-2.0468 0.55108-4.0559 1.5954-5.8163l24.616-41.496c3.2123-5.4149 10.206-7.2006 15.621-3.9883 1.6425 0.97438 3.0139 2.3458 3.9883 3.9883z" fill="#58F949"/> <path transform="translate(44.634 37.62) scale(1 -1) translate(-44.634 -37.62)" d="m54.439 16.528 24.616 41.496c3.2123 5.4149 1.4266 12.409-3.9883 15.621-1.7604 1.0443-3.7695 1.5954-5.8163 1.5954h-49.232c-6.296 0-11.4-5.104-11.4-11.4 0-2.0468 0.55108-4.0559 1.5954-5.8163l24.616-41.496c3.2123-5.4149 10.206-7.2006 15.621-3.9883 1.6425 0.97438 3.0139 2.3458 3.9883 3.9883z" fill="#2EABDB"/> <path transform="translate(90.234 37.62) scale(1 -1) translate(-90.234 -37.62)" d="m100.04 16.528 24.616 41.496c3.2123 5.4149 1.4266 12.409-3.9883 15.621-1.7604 1.0443-3.7695 1.5954-5.8163 1.5954h-49.232c-6.296 0-11.4-5.104-11.4-11.4 0-2.0468 0.55108-4.0559 1.5954-5.8163l24.616-41.496c3.2123-5.4149 10.206-7.2006 15.621-3.9883 1.6425 0.97438 3.0139 2.3458 3.9883 3.9883z" fill="#58F949" style="mix-blend-mode:soft-light"/> </g> </g> </g> </svg> 
